<?xml version="1.0" encoding="UTF-8"?>
<svg id="Layer_2" data-name="Layer 2" xmlns="http://www.w3.org/2000/svg" viewBox="0 0 19.5 19.5">
  <defs>
    <style>
      .cls-1 {
        fill-rule: evenodd;
      }
    </style>
  </defs>
  <g id="Layer_1-2" data-name="Layer 1">
    <path class="cls-1" d="M6.35,1.55C7.21.56,8.45,0,9.75,0,11.11,0,12.32.6,13.15,1.55c1.3-.09,2.58.38,3.5,1.31.92.92,1.4,2.2,1.31,3.5.98.85,1.55,2.09,1.55,3.4,0,1.3-.56,2.54-1.55,3.4.09,1.3-.38,2.58-1.31,3.5-.92.92-2.2,1.4-3.5,1.31-.85.98-2.09,1.55-3.4,1.55-1.3,0-2.54-.56-3.4-1.55-1.3.09-2.58-.38-3.5-1.31-.92-.92-1.4-2.2-1.31-3.5C.56,12.29,0,11.05,0,9.75,0,8.39.6,7.18,1.55,6.35c-.09-1.3.38-2.58,1.31-3.5.92-.92,2.2-1.4,3.5-1.31ZM13.36,7.94c.25-.33.18-.8-.15-1.05-.33-.25-.8-.18-1.05.15,0,0-.01.02-.02.03l-3.24,4.53-1.62-1.62c-.3-.28-.78-.27-1.06.04-.27.29-.27.73,0,1.02l2.25,2.25c.29.29.77.29,1.06,0,.03-.03.06-.06.08-.09,0,0,3.75-5.25,3.75-5.25Z"/>
  </g>
</svg>